<?xml version="1.0" encoding="iso-8859-1"?>
<!-- Generator: Adobe Illustrator 19.0.0, SVG Export Plug-In . SVG Version: 6.00 Build 0)  -->
<svg version="1.1" id="Capa_1" xmlns="http://www.w3.org/2000/svg" xmlns:xlink="http://www.w3.org/1999/xlink" x="0px" y="0px"
	 viewBox="0 0 511.996 511.996" style="enable-background:new 0 0 511.996 511.996;" xml:space="preserve">
<g>
	<g>
		<g>
			<path d="M275.248,51.684c10.573-9.583,23.417-24.625,23.417-41.021c0-3.438-1.646-6.646-4.427-8.646
				c-2.802-2.021-6.375-2.542-9.615-1.479l-28.635,9.542l-28.615-9.542c-3.26-1.063-6.833-0.542-9.615,1.479
				c-2.781,2-4.427,5.208-4.427,8.646c0,16.292,12.688,31.25,23.448,40.979C44.936,159.35,42.665,303.121,42.665,309.33
				c0,5.896,4.771,10.667,10.667,10.667h405.333c5.896,0,10.667-4.771,10.667-10.667C469.332,303.1,467.061,158.913,275.248,51.684z
				"/>
			<path d="M437.332,341.33H74.665c-5.896,0-10.667,4.771-10.667,10.667V469.33c0,23.521,19.135,42.667,42.667,42.667h234.667h64
				c23.531,0,42.667-19.146,42.667-42.667V351.996C447.998,346.1,443.227,341.33,437.332,341.33z M319.998,490.663h-128v-64
				c0-35.292,28.708-64,64-64s64,28.708,64,64V490.663z"/>
		</g>
	</g>
</g>
<g>
</g>
<g>
</g>
<g>
</g>
<g>
</g>
<g>
</g>
<g>
</g>
<g>
</g>
<g>
</g>
<g>
</g>
<g>
</g>
<g>
</g>
<g>
</g>
<g>
</g>
<g>
</g>
<g>
</g>
</svg>
