<svg xmlns="http://www.w3.org/2000/svg" viewBox="0 0 280 280"><defs><style>.cls-1,.cls-12{fill:#e0ff03;}.cls-2{fill:#068706;}.cls-3{fill:#212122;}.cls-4{fill:#423f3c;}.cls-5{fill:#e6e6e6;}.cls-6{fill:#fdfdfc;stroke:#998675;}.cls-11,.cls-12,.cls-13,.cls-6,.cls-8{stroke-miterlimit:10;}.cls-6,.cls-8{stroke-width:0.25px;}.cls-7{fill:#8b7d61;}.cls-8{fill:#ffeee9;stroke:#b3b3b3;}.cls-9{fill:#42210b;}.cls-10{fill:#603813;}.cls-11{fill:#096609;}.cls-11,.cls-12{stroke:#000;stroke-width:0.12px;}.cls-13{fill:none;stroke:#666;stroke-width:2px;}.cls-14{fill:#fff;}</style></defs><title>logo-grande_1</title><g id="Capa_2" data-name="Capa 2"><g id="Capa_1-2" data-name="Capa 1"><circle class="cls-1" cx="140" cy="140" r="140"/><circle class="cls-2" cx="140" cy="140" r="120.6"/><circle class="cls-3" cx="141.7" cy="136.5" r="97.2"/><circle class="cls-4" cx="140" cy="140" r="77.8"/><path class="cls-5" d="M132.3,146.4c.8-1.8.2-3.4,0-5.2s1.5-4.1,2.6-6l3.9-6.2,7.8-12.5c.5-.9-1.3-1.7-1.9-.8-2.5,4.2-5.1,8.3-7.7,12.5l-3.9,6.2a22,22,0,0,0-2.8,5.5c-.4,1.9.7,3.8.1,5.6s-3.1,3.2-5,4.2c-3.5,1.8-7.6,4-7.2,7.6.1,1,2.2,1,2.1,0-.4-3.9,5.5-5.7,8.8-7.8A8.7,8.7,0,0,0,132.3,146.4Z"/><path class="cls-5" d="M202,184.8a148.1,148.1,0,0,0-15-3.3l-15.3-3.1c-9.9-2.1-19.8-4.5-29-8.1a3.8,3.8,0,0,0,1.3-.9l.2-.3c3.7,1.3,7.4,1.5,9.8-1.5a.8.8,0,0,0,.2-.4c3.1.1,6.2-.7,8.2-2.5.2-.2.3-.4.2-.6a7.8,7.8,0,0,0,5.4-1.4,2.6,2.6,0,0,0,1-2.8c2.5-1.1,3.8-3.3,3.3-5.4a8.8,8.8,0,0,0,4.3-2.7.7.7,0,0,0,.2-.6c2.1-.6,3.6-2.3,3.5-4a3.7,3.7,0,0,0,2-2.1,2,2,0,0,0-.7-1.9,2.1,2.1,0,0,0,0-3.8c1-1.2.6-2.6-1-3.5a11,11,0,0,0,2.6-2.7,3.1,3.1,0,0,0-2.4-4.7,4.1,4.1,0,0,0,.5-.9c.7-1.2,1.5-3,.2-4.2a3.4,3.4,0,0,0-2-.9,6.6,6.6,0,0,0,.9-1.9c.5-1.5.7-3.3-1.1-4.3a2.8,2.8,0,0,0-1.5-.4,4.6,4.6,0,0,0-.6-5.3,1.2,1.2,0,0,0-1.4-.3l-1.7.9a10,10,0,0,0-.4-6.1c-.1-.4-.8-.7-1.3-.6l-1.1.4c.7-1.7.8-3.3-1.2-4.3a4.4,4.4,0,0,0-4.4.5.1.1,0,0,0-.1.1l.5-.6c.5-.7,1.3-1.5,1.3-2.3s-1.5-2.4-3.5-2.5-4.1,1.6-5.4,2.7a61,61,0,0,0-5.9,5.4c-2.6,2.6-5.2,5.1-7.7,7.8a9.1,9.1,0,0,0-2.6-5.4,4.3,4.3,0,0,0-4.1-.9,7.8,7.8,0,0,0-.1-5c-.7-1.6-2.7-2.7-4.9-2.8a7,7,0,0,0-.7-4,4.3,4.3,0,0,0-4.2-2.1,6.8,6.8,0,0,0-5.2-6.6h-.6a15.1,15.1,0,0,0-.8-3.4,4.2,4.2,0,0,0-3.3-3.1,3.8,3.8,0,0,0-3.5,1.4c-.7-2.7-2.5-6.5-5.9-5.8s-2.3,2.1-2.4,3.5a37.6,37.6,0,0,1-1.4,7.3,47,47,0,0,0-1.2,5.1,3.1,3.1,0,0,0-4.1.5c-2.1,2-.8,5.5-.6,7.9l.9,9.8a70.3,70.3,0,0,0,3.7,18c2.1,5.6,6.2,11.1,5.5,17l-.6-.4A9.8,9.8,0,0,0,102,141c-6.1.8-8.7,5.3-7.6,9.5v.2a8.8,8.8,0,0,0-.9,4.2c.1.9,1.4,1.1,2,.4a8.1,8.1,0,0,1,2.3-1.7h1.5c-2.1,3-4.1,6-4.2,9.5s2,6,4.7,8.2,7.1,3.9,9.6,6.6-1.7,7.5-5.3,9.7h-.1l-7.5-1.3c-1.6-.2-3.7-.4-5.2.3-3.2,1.4-3.7,4.5-.8,6.3.6.3,1.6.3,1.8-.4a2,2,0,0,1,.9-1.3,3.9,3.9,0,0,0,.4,2.3c.3.8,1.6.7,2,0s2.1-2.7,4.3-1.7a8,8,0,0,0,3.1.9,6.2,6.2,0,0,0,3.8-1l1,.5a4.4,4.4,0,0,0,3.9-.7,4.2,4.2,0,0,0,3.3.6c.5.8,1,1.7,1.6,2.5s1.7.4,1.9-.2,2.7,1.2,2.9,1.6,1.8.8,2.1,0,1.6-.4,2.6,0l3.4,1.2c.7.2,1.5-.1,1.6-.7s.1-.9.1-1.4c1.8.5,4.4,1.8,5.5.2a2.3,2.3,0,0,0,.3-1.1,39.1,39.1,0,0,0,4.9.3.9.9,0,0,0,.9-.5c6.2,4.7,14.4,7.6,23.2,8.3a.9.9,0,0,0,1.1-1,20,20,0,0,0-2.8-4.9l3.8,1.3c2,.7,4.5,2,6.8,1.9s1.1-3.4-.9-5.8l3.2,1c4.2,1.2,8.7,2.3,13.1,1.1.7-.2,1.1-.9.4-1.3a54.9,54.9,0,0,0-10.2-5.4,10.6,10.6,0,0,0,3.9-1.3,48.1,48.1,0,0,0,12,.4c1.6-.2,4.7-.5,5.8-1.4S203.4,185.2,202,184.8Zm-93.4-53.1a68.6,68.6,0,0,1-5-14.2c-1-5.2-1.3-10.3-1.8-15.5-.2-2.5-.5-5-.7-7.5a8.6,8.6,0,0,1-.1-1.6c0-.1.6-2.9,1.7-1.8a5.4,5.4,0,0,1,.9,1.5c0,.2-.1.4-.1.6a.8.8,0,0,0,0,.7,45.4,45.4,0,0,0,2.1,18.9c.3.9,2.4.5,2-.5a44.8,44.8,0,0,1-2.1-18.5,2.3,2.3,0,0,0,.2-1.6,6.8,6.8,0,0,1,.2-1.4c.5-3.5,1.9-6.9,2.5-10.4l.3-2.4V77a1.3,1.3,0,0,1,2.3-.5,9.3,9.3,0,0,1,2.2,5,.7.7,0,0,0,.4.6,21.5,21.5,0,0,0-1,4.4c-.7,4.8-.5,9.7-.6,14.6s-.2,10-.2,15.1c0,1,2.1,1,2.1,0,0-7.6.2-15.1.4-22.7.2-3.5.1-7.2,1.3-10.6a9.4,9.4,0,0,1,1.2-2.2c1.4-1.7,2.5.4,2.9,1.3a10.1,10.1,0,0,1,.6,5.2c0,.4.3.6.7.7a82.3,82.3,0,0,0-3.7,21.8c0,1,2.1,1,2.1,0a82.4,82.4,0,0,1,4.1-22.9c2.4,1.3,2.8,3.7,2.8,5.7a43.1,43.1,0,0,1-1.3,8c-1.2,4.7-2.7,9.4-2.8,14.2-.1,1,2.1,1,2.1,0,.1-5.9,2.5-11.6,3.5-17.5a27,27,0,0,0,.6-4.1c3.3-1.1,2.6,5.6,2.4,6.5l-1.8,6.7-3.7,13.6c-.2,1,1.8,1.4,2.1.4l5.1-19.2a11.7,11.7,0,0,0,.5-2c3.9-.2,3.5,4.2,3,6.1a64.4,64.4,0,0,1-2.4,7c-1.9,4.8-4.4,9.5-6.8,14.2-.5.9,1.5,1.3,2,.4a143.5,143.5,0,0,0,8.4-18.3l.3-.9.6-.3c1.3-1.6,3.3.6,3.7,1.5a11.4,11.4,0,0,1,1.1,4.4c.1.1.1.3.2.4l-1.7,1.9a62.9,62.9,0,0,0-8.2,12.1c-2.3,4.4-4.4,8.8-8.8,12.3s-6.5,4.2-9.3,6.7H115a8.7,8.7,0,0,1-3.7-1.9C112.2,140.2,110.6,135.9,108.6,131.7Zm90.8,54.5a24.4,24.4,0,0,1-3.9.7,49.8,49.8,0,0,1-14.4-1.1,154.5,154.5,0,0,1-28.4-7.9c-1.2-.5-2.3.9-1.1,1.3a155.3,155.3,0,0,0,29.9,8.3c-2.6.8-5.8.4-8.5.1s-7.1-.9-10.7-1.5a64.9,64.9,0,0,1-19.4-6.2c-1.1-.6-2.2.8-1.1,1.4,6.6,3.4,14.3,5.4,22.1,6.7,3.8.6,7.6,1.1,11.5,1.4h1.2l.4.2a59.7,59.7,0,0,1,10.8,5.1c-3.9.5-7.8-.8-11.4-1.9l-4.3-1.3a1,1,0,0,0-.9-.2l-7.9-2.4c-1.3-.4-1.9,1.1-.6,1.5l7.9,2.4,2.6,3.1c.5.7,1.1,1.3,1.5,2l-2.7-.7-10.1-3.4-2-1.7c-1-.7-2.5.4-1.5,1.1l1.9,1.6.2.2a17.6,17.6,0,0,1,4.2,5.6c-8.7-1-16.6-4.3-22.3-9.3l-.4-.2a16.4,16.4,0,0,0-1.4-2.2c-.7-.8-2.6-.1-1.9.8a9.7,9.7,0,0,1,1.9,3.2,22,22,0,0,1-4.4-.5L134,189c-.5-1-2.4-.2-1.8.8s2.8,4.7,2.5,4.8a10,10,0,0,1-2.6-.9,5.2,5.2,0,0,0-1.8-.2c-.6.1-1,.4-1,.8a3.8,3.8,0,0,0-.1,1c-2.2-.9-4.9-2-6.5-1.1a4.3,4.3,0,0,0-2.7-1.6,3.6,3.6,0,0,0-2.1.3l-1.4-2.2c-.3-.5-1.2-.5-1.7-.2a1.4,1.4,0,0,1-1.9-.3,1.2,1.2,0,0,0-1.7-.3l-.9.6a1.2,1.2,0,0,1-1.9-.2c.2-.4-.2-.8-.7-.9a1.3,1.3,0,0,0-1.3.3,4,4,0,0,1-4.1,1.4c-1.2-.3-2.1-1.1-3.5-1.3a4.2,4.2,0,0,0-3.3,1,1.6,1.6,0,0,1,.4-.7c.4-.7-.3-1.4-1.2-1.2a6.1,6.1,0,0,0-3.7,2,1.8,1.8,0,0,1,.6-2.4c1.1-.9,3.1-.7,4.5-.5s5.1.9,7.7,1.3a1.2,1.2,0,0,0,1.1-.3l.8-.2c3.1-1.9,6.9-4.4,7.1-7.7s-2.5-5.2-5.7-7-7.5-4.5-9.2-8,.9-8.2,3.4-11.8h.1c1.1.5,2.2-.8,1-1.4l-2.2-.8c.1-.5-.7-1.2-1.6-.8a12.6,12.6,0,0,0-2.6,1.3,6.8,6.8,0,0,1,.7-2,.5.5,0,0,0-.3-.8c-.9-3.9,2.6-8.3,8.5-7.2,2.1.4,3.7,2.1,5.1,3.2a8.8,8.8,0,0,0,3.7,2,7.6,7.6,0,0,0-1.1,1.4,6.8,6.8,0,0,0,.5,9.4,8.9,8.9,0,0,0,4.1,2.1c1.3.3,1.9-1.2.6-1.5-5-1.2-5.5-5.7-3.7-8.8s7-6.1,10.8-8.7c7.6-5.4,9.4-13.4,14.1-20.1a82,82,0,0,1,8.6-10.1c3.3-3.5,6.7-7,10.4-10.3l2.5-2.1,1.4-1.1.8-.4c1.3-.7,2.1-.3,2.3,1.1s-3.2,3.9-4.7,5.8l-1.2,1.5h-.2l-.3.5c-2.6,3.3-5.2,6.6-7.9,9.8-.7.9,1.1,1.7,1.8.8l8.3-10.2,4.3-3.3,2.1-1.6c2-.4,2.7.1,2.3,1.4a6.1,6.1,0,0,1-.7,1.4,64.4,64.4,0,0,1-5.7,8.3,91.2,91.2,0,0,1-15.3,15.1c-.9.8.6,1.9,1.5,1.1a91.8,91.8,0,0,0,18.8-19.7l1.1-1.5a1.2,1.2,0,0,0,.8-.4,7.5,7.5,0,0,1,2-1.5c2.7,9.8-12,16.9-17.6,24.5-.6.9,1.2,1.7,1.9.8,4-5.5,12.2-10.6,16-16.6a1,1,0,0,0,.9-.4,6.6,6.6,0,0,1,2.7-2.5c1,1.9-.5,3.9-1.9,5.6s-3.1,3.5-4.7,5.2a105.1,105.1,0,0,1-11.6,10.3c-.9.7.6,1.8,1.5,1.1A118.7,118.7,0,0,0,172,122.9c1.2-1.3,2.9-3,4.3-4.7a1,1,0,0,0,1.1-.5h1a2.5,2.5,0,0,1,.1,1.9,7.8,7.8,0,0,1-.5,1.4,13.2,13.2,0,0,1-1.9,2.9,27.6,27.6,0,0,1-6.3,4.8c-1.1.6.4,1.8,1.5,1.1a27,27,0,0,0,6.9-5.5,1.1,1.1,0,0,0,.7-.2c1.2-.8,1.1,1.4,1.1,1.4a5.3,5.3,0,0,1-.8,1.7,11.9,11.9,0,0,1-2.8,3.2,39.5,39.5,0,0,1-7.5,4.6c-1.1.6,0,2,1.1,1.4,3.5-1.9,7.1-3.9,9.6-6.5h0c2.6-.4,2,2.1,1.5,2.9a15.3,15.3,0,0,1-1.8,1.8,16.6,16.6,0,0,1-5.5,2.7c-1.3.4-.8,1.9.5,1.5A17.8,17.8,0,0,0,179,137h.1v1.9a.8.8,0,0,0,.2,1.5c1.6.1,1.3,1.8-.2,1.7s-1.4,1.5,0,1.6.6,2-.3,2.3-3,.3-4.4.1l-6.5-.7a80.3,80.3,0,0,0-14.7.3c-1.3.2-.7,1.7.6,1.5a91.5,91.5,0,0,1,11.7-.4c3.9.2,7.7,1.1,11.6,1.1h1.1c-.6,2.1-4.4,2.3-6.9,2.2s-5.3-.7-8-.1-.8,1.8.5,1.5c3.5-.7,6.9.3,10.4.1-3.1,2.7-8.7,1.9-12.8,1.2-1.3-.3-1.9,1.3-.6,1.5a33.6,33.6,0,0,0,9.5.6c.2,1.4-.7,2.8-2.4,3.6a3.5,3.5,0,0,0-1.2-.7,52.7,52.7,0,0,0-6-1.4l-7.1-1.6c-1.3-.2-1.9,1.3-.6,1.6l8.7,1.9a32.8,32.8,0,0,1,4.5,1.1c2.4.9-.4,2.8-1.7,3.1-2.9.6-6.9-1.1-9.6-1.8l-9.3-2.6c-1.3-.3-1.9,1.2-.6,1.5l13.2,3.6a9.4,9.4,0,0,0,2.4.6c-5.1,4.2-13,.3-17.6-2.4-1-.6-2.6.5-1.5,1.1,3.2,1.9,6.6,3.8,10.6,4.4-3.8,4.4-12.6-1.9-15.6-4-.9-.7-2.4.5-1.5,1.2a63.8,63.8,0,0,0,7.4,4.3c-4.9,4.4-12-3.6-15.9-5.3-1.2-.6-2.3.8-1.1,1.3,3.7,1.6,5.9,4.5,9.7,6a9.5,9.5,0,0,0,5.3.6c.1.2.2.3.4.3,16.3,6.6,34.6,9.4,52.2,13.1l6.5,1.4,1.1.3A2.5,2.5,0,0,0,199.4,186.2Z"/><path class="cls-5" d="M100.4,146.8c-1.3,0-1.3,1.6,0,1.6S101.8,146.8,100.4,146.8Z"/><ellipse class="cls-6" cx="140.1" cy="247.6" rx="13.1" ry="8.7"/><path class="cls-7" d="M152.3,249c0,.5-1.4.9-3.6,1.2s-1.6.2-1.8.7c-1.7-.3-2.7-.2-2,4.7-2.8-4.9-3.9-4.8-6.7-3.5.3-.7.1-1-.2-1.2s-.9-.2-.3.5c-2.2-.7-3.2-.8-3.1,5.3-2-6.3-2.8-6.4-5.7-4.9,1.4-1.7.7-1.8-.4-1.7s-.4-.5-.7-.7-.4-.3-.4-.4a.5.5,0,0,1,.4-.5c.3-.2.7-.3.6-.5s1.9-.2,0-1.4c3.4,1,4.2.9,7.3-7.1-1.2,7.8-.2,7.7,2.3,7.1-.9.6-.4.6.1.4a11.6,11.6,0,0,0-.1-1.3c.1.5.8.7,1.3.8,2.3.4,3.7-.6,7.3-5.6-2.4,6.3-1.4,6.4.6,6.2-.1.4.7.5,1.5.6S152.3,248.5,152.3,249Z"/><ellipse class="cls-6" cx="168.3" cy="243.7" rx="13.1" ry="8.7" transform="translate(-62.8 58.5) rotate(-16.7)"/><path class="cls-7" d="M180.3,241.4c.2.5-1,1.3-3.1,2.3s-1.5.7-1.5,1.2c-1.7.1-2.6.5-.6,5.1-4-3.9-5.1-3.6-7.4-1.5.1-.7-.2-1-.6-1.1s-.9.1-.1.6c-2.3-.1-3.3.1-1.4,5.9-3.7-5.4-4.6-5.2-6.9-3,.8-2,.2-2-.9-1.6s-.5-.3-.8-.4a.9.9,0,0,1-.6-.3.9.9,0,0,1,.3-.6c.3-.2.6-.5.4-.6s1.8-.8-.4-1.4c3.5,0,4.3-.4,5-8.8,1.1,7.8,2,7.4,4.3,6.1-.8.8-.3.6.1.3a6.7,6.7,0,0,0-.4-1.2c.3.5.9.5,1.5.4,2.2-.3,3.3-1.6,5.3-7.4-.4,6.7.5,6.5,2.4,5.7,0,.4.8.3,1.6.1S180.2,240.9,180.3,241.4Z"/><ellipse class="cls-6" cx="194.8" cy="233.6" rx="13.1" ry="8.7" transform="translate(-79.5 102) rotate(-24.5)"/><path class="cls-7" d="M206.4,229.8c.2.4-.9,1.4-2.8,2.7s-1.4.8-1.3,1.3c-1.7.4-2.6.9.1,5.2-4.6-3.3-5.6-2.9-7.5-.5-.1-.7-.4-.9-.8-1s-.9.2,0,.6c-2.3.2-3.3.6-.6,6-4.4-4.8-5.2-4.5-7.3-2,.6-2.1,0-1.9-1-1.4s-.6-.3-.9-.3a.6.6,0,0,1-.6-.3c-.1-.1,0-.3.2-.6s.5-.6.3-.7,1.6-.9-.6-1.2c3.5-.6,4.2-1,3.7-9.5,2.2,7.6,3,7.1,5.1,5.5-.6.9-.2.7.2.3l-.6-1.1a1.6,1.6,0,0,0,1.5.2c2.2-.6,3.1-2.1,4.3-8.2.5,6.8,1.4,6.4,3.2,5.4,0,.4.8.1,1.5-.1C204.7,229.5,206.2,229.3,206.4,229.8Z"/><ellipse class="cls-6" cx="217.3" cy="215.8" rx="13.1" ry="8.7" transform="translate(-88.8 206.7) rotate(-43.1)"/><path class="cls-7" d="M227.1,208.4c.3.4-.4,1.7-1.8,3.5s-1,1.2-.8,1.6c-1.5,1-2.2,1.7,1.7,4.9-5.4-1.7-6.2-.9-7.3,2-.2-.7-.6-.8-.9-.7s-.9.4.1.5c-2.2,1-2.9,1.6,1.3,5.9-5.7-3.1-6.4-2.6-7.5.4-.1-2.2-.7-1.8-1.5-1s-.6-.1-.9,0h-.6c-.2-.2-.2-.4,0-.7s.3-.7,0-.7,1.3-1.5-.9-1.1c3.1-1.6,3.7-2.2.5-10.1,4.4,6.5,5.1,5.8,6.6,3.6-.4,1,0,.7.2.2l-.9-.8c.5.2,1-.1,1.5-.4s2.3-2.9,1.5-9c2.6,6.2,3.4,5.6,4.7,4,.1.4.8-.1,1.4-.5S226.7,208,227.1,208.4Z"/><ellipse class="cls-6" cx="234.4" cy="192.4" rx="13.1" ry="8.7" transform="translate(-50.4 296.8) rotate(-59.5)"/><path class="cls-7" d="M241.7,182.6c.5.3.1,1.7-.7,3.8s-.7,1.5-.3,1.9c-1.2,1.3-1.6,2.2,3,4.1-5.6-.1-6.2.9-6.4,4-.5-.6-.8-.6-1.2-.4s-.6.7.3.5c-1.8,1.5-2.3,2.3,3,5.3-6.4-1.4-6.9-.8-7.1,2.5-.8-2.1-1.2-1.6-1.7-.6s-.6.1-.9.3-.5.2-.6.1-.2-.3-.2-.6.1-.8-.2-.7.8-1.8-1.2-.8c2.6-2.4,2.9-3.2-2.4-9.8,6.1,5,6.6,4.1,7.4,1.5-.1,1.2.2.7.3.2l-1.1-.6c.5.2,1-.3,1.3-.7s1.4-3.5-1.1-9.1c4.2,5.2,4.8,4.4,5.6,2.6.3.3.8-.4,1.3-1S241.3,182.4,241.7,182.6Z"/><ellipse class="cls-6" cx="112.2" cy="244.2" rx="8.7" ry="13.1" transform="matrix(0.29, -0.96, 0.96, 0.29, -153.92, 281.57)"/><path class="cls-7" d="M100.1,241.9c-.1.5,1.1,1.3,3.2,2.3s1.4.7,1.4,1.2c1.8.1,2.7.5.6,5.1,4.1-3.9,5.2-3.6,7.4-1.5,0-.7.2-1,.6-1.1s.9.1.2.6c2.3-.1,3.2.1,1.3,5.9,3.8-5.4,4.6-5.2,7-3-.9-2-.2-1.9.8-1.6s.5-.3.9-.4.5-.2.5-.3,0-.4-.3-.6-.6-.5-.3-.6c-1.2-.5-1.8-.8.3-1.4-3.5,0-4.3-.3-4.9-8.8-1.1,7.8-2,7.4-4.3,6.1.8.8.2.6-.2.3l.5-1.1c-.3.4-1,.4-1.5.3-2.3-.3-3.4-1.6-5.4-7.4.5,6.7-.5,6.5-2.3,5.7,0,.4-.9.3-1.6.1C101.7,241.4,100.3,241.5,100.1,241.9Z"/><ellipse class="cls-6" cx="85.7" cy="234.2" rx="8.7" ry="13.1" transform="translate(-162.9 214.8) rotate(-65.5)"/><path class="cls-7" d="M74.1,230.3c-.2.4.9,1.4,2.8,2.7s1.3.8,1.2,1.3c1.8.4,2.6.9,0,5.2,4.5-3.3,5.5-2.9,7.5-.5.1-.7.3-.9.7-1s.9.2.1.6c2.3.2,3.2.6.5,6,4.5-4.8,5.3-4.5,7.3-2-.6-2.1.1-1.9,1.1-1.4s.5-.3.9-.3a.6.6,0,0,0,.6-.3,1,1,0,0,0-.2-.6c-.2-.2-.6-.5-.3-.7s-1.7-.9.5-1.2c-3.5-.6-4.2-1-3.7-9.5-2.1,7.6-3,7.1-5.1,5.5.7.9.2.7-.1.3a2.8,2.8,0,0,1,.6-1.1c-.4.4-1,.3-1.6.2-2.2-.6-3.1-2.1-4.3-8.2-.4,6.8-1.4,6.4-3.1,5.4,0,.4-.8.1-1.6-.1S74.3,229.8,74.1,230.3Z"/><ellipse class="cls-6" cx="63.2" cy="216.3" rx="8.7" ry="13.1" transform="translate(-137.9 114.6) rotate(-46.9)"/><path class="cls-7" d="M53.4,208.9c-.4.4.3,1.7,1.8,3.5s1,1.2.7,1.6c1.5,1,2.2,1.7-1.7,4.9,5.4-1.7,6.2-.9,7.3,2,.3-.7.6-.8,1-.7s.8.4-.1.5c2.1,1,2.9,1.6-1.4,5.9,5.7-3.1,6.4-2.6,7.5.4.2-2.2.7-1.8,1.5-1s.6-.1.9,0h.7a.8.8,0,0,0,0-.7c-.1-.3-.3-.7-.1-.7s-1.2-1.5,1-1.1c-3.2-1.6-3.7-2.2-.5-10.1-4.5,6.5-5.2,5.8-6.6,3.6.3,1.1-.1.7-.3.2l.9-.8c-.4.2-1-.1-1.5-.4s-2.2-2.9-1.4-9c-2.6,6.2-3.4,5.6-4.7,4-.2.4-.9-.1-1.5-.5S53.7,208.6,53.4,208.9Z"/><ellipse class="cls-6" cx="46" cy="193" rx="8.7" ry="13.1" transform="translate(-91.6 50.1) rotate(-30.5)"/><path class="cls-7" d="M38.7,183.1c-.4.3-.1,1.7.8,3.8s.6,1.5.2,1.9c1.2,1.3,1.7,2.2-3,4.2,5.7-.2,6.2.8,6.5,3.9.4-.6.8-.6,1.1-.4s.6.7-.3.5c1.8,1.5,2.4,2.3-3,5.3,6.4-1.4,7-.8,7.2,2.5.7-2.1,1.1-1.6,1.7-.6s.6.1.8.3a.6.6,0,0,0,.7.1.8.8,0,0,0,.2-.6c0-.3-.1-.8.1-.7s-.8-1.8,1.2-.8c-2.5-2.4-2.9-3.2,2.4-9.8-6.1,5-6.5,4.1-7.3,1.5,0,1.2-.3.7-.3.2l1.1-.6c-.5.2-1-.3-1.4-.7s-1.3-3.5,1.2-9.1c-4.3,5.2-4.8,4.4-5.7,2.6-.2.3-.7-.4-1.2-1S39.2,182.9,38.7,183.1Z"/><path class="cls-8" d="M27.6,128.3c2.1,4.8,7.4,6.1,10,2.5a6.1,6.1,0,0,0,1.1-3.5c.3-3.5.6-7,1.2-10.4A106.6,106.6,0,0,1,44,99.8,92.4,92.4,0,0,1,58.3,72.9c1.9-2.4,3.8-4.7,5.6-7.1l.5-.6a1.9,1.9,0,0,0-.3-2,1.3,1.3,0,0,0-1.8-.4l-.5.5-2.7,2.5c-2,1.8-4,3.6-5.9,5.6A83.3,83.3,0,0,0,42.4,84.8a87.6,87.6,0,0,0-6.9,12.4c-1.5,3.3-2.9,6.6-4.1,10.1s-2.3,7.4-3.2,11.3c-.4,1.8-.7,3.5-1.1,5.3A8.3,8.3,0,0,0,27.6,128.3Z"/><path class="cls-9" d="M33.1,126.6l4.9-.4a7.3,7.3,0,0,1,1.5,6.9,5,5,0,0,0,0,3.8,19.3,19.3,0,0,1-1.1,9.9l.2,2.1v.4l2.5-.2.8,9.9h-1l.3,3.3,2.6,7.9-7.1.6-7,.6,1.3-8.3-.3-3.2h-1l-.8-9.9,2.5-.2v-.4l-.2-2.1a19.6,19.6,0,0,1-2.7-9.6,5.1,5.1,0,0,0-.6-3.7,7.6,7.6,0,0,1,.3-7.2Z"/><path class="cls-10" d="M34.1,137.7a.5.5,0,0,1,.5-.6h0a.5.5,0,0,1,.6.5l1.4,16.7a.8.8,0,0,1-.5.7h0a.7.7,0,0,1-.7-.6Z"/><path class="cls-3" d="M238.6,159.7c10.3-6.5,13.2-19.4,14.4-30.5a62.6,62.6,0,0,0-.1-7.5,86.7,86.7,0,0,0-5-23.1l-.7,3.8a28.6,28.6,0,0,0-1.3-5.8c-2.2-5.8-4.5-10.9-8.5-15.5.3,3.2,2.2,5.9,2.4,9a32.3,32.3,0,0,0-8.7-15.5,43.8,43.8,0,0,0-4.5-4.1,32.6,32.6,0,0,0,3.6,3.9,12.1,12.1,0,0,1,2.9,4.3l-3.9-4.4c-10.3-9.8-20.7-27.3-36.7-21.4,16.2,2,23.9,17.5,33.5,28.7,1.4,1.9,2.7,3.8,4,5.8a87.5,87.5,0,0,1,9.1,19.3q1.5,3.5,2.7,6.9c.6,1.8,1.2,3.5,1.7,5.3,2.5,9.4,5.7,18.6,1.7,28.2-.4-2.5-3.2-4.5-1.9-7.5.9,4.1-.7,8.6-1.6,12.2S238.6,159.7,238.6,159.7Z"/><path class="cls-9" d="M250.3,128.5l5,1a7.3,7.3,0,0,1-.5,7.1,4.9,4.9,0,0,0-1,3.6,18.5,18.5,0,0,1-3.9,9.2l-.4,2.1v.4l2.6.5-2,9.8-1-.2-.6,3.2.4,8.3-7.3-1.4-7.2-1.5,3.6-7.5.6-3.2-1-.2,2-9.8,2.5.5V150l.4-2.1a19.2,19.2,0,0,1,0-10,4.8,4.8,0,0,0,.4-3.7,7.2,7.2,0,0,1,2.4-6.7Z"/><path class="cls-10" d="M247.2,136.4a1.1,1.1,0,0,1,1.4-.7h0a1.1,1.1,0,0,1,1,1.2l-5.4,27.2c-.1.5-.7.8-1.4.7h0c-.7-.1-1.2-.7-1.1-1.2Z"/><ellipse class="cls-6" cx="60.9" cy="102.1" rx="10.2" ry="6.3" transform="translate(-56 123.6) rotate(-69.6)"/><ellipse class="cls-9" cx="53.6" cy="128.9" rx="10.2" ry="6.3" transform="translate(-82 162.2) rotate(-81.2)"/><ellipse class="cls-6" cx="55.1" cy="157.6" rx="6.3" ry="10.2" transform="translate(-17.7 7.4) rotate(-6.6)"/><ellipse class="cls-9" cx="65.6" cy="182.5" rx="6.3" ry="10.2" transform="translate(-82.5 57.3) rotate(-30)"/><ellipse class="cls-6" cx="216.8" cy="97" rx="6.3" ry="10.2" transform="translate(-20.7 93.9) rotate(-23.4)"/><ellipse class="cls-6" cx="225.6" cy="123.4" rx="6.3" ry="10.2" transform="translate(-20.4 48.5) rotate(-11.7)"/><ellipse class="cls-6" cx="226.3" cy="152.2" rx="10.2" ry="6.3" transform="translate(60.1 368.5) rotate(-86.4)"/><ellipse class="cls-6" cx="218.3" cy="178.3" rx="10.2" ry="6.3" transform="translate(-39.7 291.8) rotate(-63)"/><circle class="cls-11" cx="213.2" cy="188.2" r="1.2"/><circle class="cls-12" cx="211.9" cy="189.4" r="1.2"/><circle class="cls-11" cx="210.6" cy="190.5" r="1.2"/><circle class="cls-12" cx="209.4" cy="191.7" r="1.2"/><circle class="cls-11" cx="208.1" cy="192.9" r="1.2"/><circle class="cls-12" cx="214.7" cy="188.8" r="1.2"/><circle class="cls-12" cx="207.5" cy="194.3" r="1.2"/><circle class="cls-11" cx="207" cy="195.8" r="1.2"/><circle class="cls-12" cx="206.4" cy="197.2" r="1.2"/><circle class="cls-11" cx="214.1" cy="190.2" r="1.2"/><circle class="cls-12" cx="214.3" cy="191.9" r="1.2"/><circle class="cls-11" cx="214.4" cy="193.7" r="1.2"/><circle class="cls-12" cx="214.6" cy="195.4" r="1.2"/><circle class="cls-11" cx="214" cy="196.8" r="1.2"/><circle class="cls-12" cx="213.5" cy="198.3" r="1.2"/><circle class="cls-11" cx="212.9" cy="199.8" r="1.2"/><circle class="cls-12" cx="213.9" cy="186.5" r="1"/><circle class="cls-11" cx="214.7" cy="187.2" r="1"/><circle class="cls-11" cx="206" cy="198.8" r="1.2"/><circle class="cls-12" cx="205.2" cy="200.3" r="1.2"/><circle class="cls-11" cx="204" cy="201.5" r="1.2"/><circle class="cls-12" cx="212.2" cy="201.1" r="1.2"/><circle class="cls-11" cx="211.8" cy="202.7" r="1.2"/><circle class="cls-12" cx="211" cy="204.2" r="1.2"/><path class="cls-13" d="M56.9,108.8c-2.2,6.9-2.7,12.8-1.1,13.3"/><path class="cls-13" d="M52,137.3c-.3,7.2.8,13.1,2.5,13.1"/><path class="cls-13" d="M144.9,57c-19-13.9-55.1,3.3-80.8,38.5"/><path class="cls-13" d="M139.9,57c17.7-13,50.8,2.2,74,34"/><polygon class="cls-14" points="143.2 55 170.3 53.7 143.6 52.5 161.4 33.6 141.7 50.8 140.4 25 139.1 51 119.1 33.6 136.9 52.5 110.4 53.7 137.3 55 119.1 74.2 139.1 56.8 140.4 82.4 141.7 57 161.4 74.2 143.2 55"/><path class="cls-13" d="M55.8,164.9c1.9,7,4.8,12.2,6.4,11.7"/><path class="cls-13" d="M220.7,104.2c3.2,6.4,4.7,12.2,3.2,13"/><path class="cls-13" d="M226.9,130.2c1.2,8.3.8,15.2-.9,15.5"/><path class="cls-13" d="M226.7,158.3c-1.3,8.3-3.7,14.9-5.4,14.6"/></g></g></svg>