<svg id="Layer_1" enable-background="new 0 0 512 512" height="512" viewBox="0 0 512 512" width="512" xmlns="http://www.w3.org/2000/svg"><g id="XMLID_2074_"><g id="XMLID_200_"><path id="XMLID_215_" d="m385.833 44h-4.776c-4.705-25.012-26.699-44-53.057-44h-144c-26.358 0-48.352 18.988-53.057 44h-4.776c-5.522 0-10 4.477-10 10s4.478 10 10 10h3.833v77.311c0 62.308 18.131 122.47 52.471 174.327l-51.798 156.96c-3.054 9.251-1.53 19.085 4.177 26.979 5.708 7.895 14.569 12.422 24.312 12.422h193.678c9.742 0 18.604-4.528 24.312-12.422 5.707-7.895 7.23-17.728 4.177-26.979l-51.798-156.961c34.338-51.857 52.469-112.018 52.469-174.326v-77.311h3.833c5.522 0 10-4.477 10-10s-4.478-10-10-10zm-23.833 97.311c0 11.002-.606 21.932-1.8 32.753h-208.4c-1.195-10.821-1.8-21.751-1.8-32.753v-51.143l20.47 34.003c1.809 3.005 5.06 4.843 8.567 4.843s6.759-1.837 8.567-4.843l30.47-50.615 30.469 50.615c1.809 3.005 5.06 4.843 8.567 4.843s6.759-1.838 8.567-4.843l30.47-50.615 30.47 50.615c1.809 3.005 5.06 4.843 8.567 4.843s6.759-1.837 8.567-4.843l18.249-30.313zm-13.576 88.752h-47.424c-5.522 0-10 4.477-10 10s4.478 10 10 10h40.33c-7.449 18.816-16.854 36.924-28.157 54.063h-114.346c-11.303-17.14-20.708-35.248-28.157-54.063h40.33c5.522 0 10-4.477 10-10s-4.478-10-10-10h-47.424c-3.706-11.787-6.669-23.805-8.868-36h202.584c-2.199 12.195-5.162 24.214-8.868 36zm-147.694 94.064h110.54l37.469 113.54h-185.478zm-43.138-260.127h42.891l-21.445 35.625zm78.074 0h42.89l-21.446 35.624zm78.073 0h42.891l-21.445 35.625zm-129.739-44h144c15.27 0 28.22 10.117 32.5 24h-209c4.28-13.883 17.23-24 32.5-24zm176.942 467.859c-1.902 2.631-4.856 4.141-8.104 4.141h-193.677c-3.247 0-6.201-1.509-8.104-4.141s-2.41-5.909-1.393-8.993l6.996-21.2h198.678l6.996 21.2c1.019 3.084.511 6.362-1.392 8.993z"/><path id="XMLID_1533_" d="m256 230.06c-2.63 0-5.21 1.07-7.07 2.93s-2.93 4.44-2.93 7.07 1.069 5.21 2.93 7.08c1.86 1.86 4.44 2.92 7.07 2.92s5.21-1.06 7.069-2.92c1.86-1.87 2.931-4.45 2.931-7.08s-1.07-5.2-2.931-7.07c-1.859-1.86-4.439-2.93-7.069-2.93z"/></g></g></svg>