<svg xmlns="http://www.w3.org/2000/svg" viewBox="0 0 279.2 75"><defs><style>.cls-1,.cls-15{fill:none;}.cls-1,.cls-8{stroke:#998675;}.cls-1,.cls-10,.cls-13,.cls-14,.cls-15,.cls-8{stroke-miterlimit:10;}.cls-1,.cls-10,.cls-8{stroke-width:0.25px;}.cls-2{fill:#fff;}.cls-14,.cls-3{fill:#e0ff03;}.cls-4{fill:#068706;}.cls-5{fill:#212122;}.cls-6{fill:#423f3c;}.cls-7{fill:#e6e6e6;}.cls-8{fill:#fdfdfc;}.cls-9{fill:#8b7d61;}.cls-10{fill:#ffeee9;stroke:#b3b3b3;}.cls-11{fill:#42210b;}.cls-12{fill:#603813;}.cls-13{fill:#096609;}.cls-13,.cls-14{stroke:#000;stroke-width:0.12px;}.cls-15{stroke:#666;stroke-width:0.5px;}</style></defs><title>logo-irawo_2</title><g id="Capa_2" data-name="Capa 2"><g id="Capa_1-2" data-name="Capa 1"><rect class="cls-1" x="38" y="3.6" width="241" height="69.17" rx="12"/><path class="cls-2" d="M81.5,49.8c0-6,4.7-10.2,10.8-10.2C100,39.6,103,46.4,103,50c0,6.1-5.3,10-11,10A10.1,10.1,0,0,1,81.5,49.8Zm9.5-6c-1.5,0-2.3,1.6-2.3,3s1.7,9.1,4.7,9.1,2.4-1.5,2.4-3S94.3,43.8,91,43.8Z"/><path class="cls-2" d="M121.2,47.9c-.2.2-.5.4-.5.7s.3.5.6.7a4.8,4.8,0,0,1,3.1,4.2c0,2.8-1.8,6.3-7.5,6.3H106c-.9,0-1.9-.5-1.9-1.5s1.8,0,2-4.6l.3-8.1c.2-4.2-2.2-2.3-2.2-4.2s1.1-1.6,2-1.6h10.1c5.1,0,6.5,2.5,6.5,4.6A4.6,4.6,0,0,1,121.2,47.9Zm-8.1-1.3c0,1.1-.1,1.7.8,1.7s2.1-1.2,2.1-2.7-.5-2.9-2-2.9-.9.9-.9,1.7Zm0,6.9c0,3.2.5,3.3,1.4,3.3s2.1-1.1,2.1-2.5-.5-3.3-2.4-3.3-1.1.5-1.1,1.1Z"/><path class="cls-2" d="M130.5,49.5c.9-1.9,2.1-4.4,2.1-6.6s.9-3.4,3.3-3.4,4,2.5,5.1,4.4,4.7,9.4,5.7,11.7,2.5.8,2.5,2.4-4,1.9-5.4,1.9c-4,0-6.4,0-6.4-1.7s1.7-.9,1.7-1.8-.7-1.4-5.2-1.4c-1.5,0-2.4,0-2.4,1.4s1.8.4,1.8,1.8-3,1.7-4.1,1.7c-4,0-4.4-.7-4.4-1.6s1.5-.9,2.4-1.9a17.3,17.3,0,0,0,1.6-3Zm5.9,2c.3,0,1.1.1,1.1-.3a11.5,11.5,0,0,0-1-2.3c-.2-.4-.7-1.5-1.3-1.5s-1.2,1.7-1.3,2a9.5,9.5,0,0,0-.6,1.8c0,.4.7.3,1,.3Z"/><path class="cls-2" d="M160.7,48.4c0-3.5-.3-4.3-.6-4.7s-1.7-.9-1.7-2,5.7-2,6.2-2,5.2.1,5.2,2-1.1.9-1.7,1.6-.6,3.2-.6,5.1v2.8c0,5,.3,4.9.9,5.2s1.4.6,1.4,1.4-.3,2.1-6.4,2.1c-1.2,0-4.7,0-4.7-1.8s.9-1,1.4-1.5.6-1.5.6-5.4Z"/><path class="cls-2" d="M172.7,45.8c0-4.3-2.1-2.5-2.1-4.2s2.1-1.8,3.3-1.8h8.8c3.2,0,6.9,1.4,6.9,5.1a4.4,4.4,0,0,1-2.4,4.1c-.3.1-.5.2-.5.6s.4.5.7.6c2,.8,2.9,2.1,3.3,5.1s2.1,1,2.1,2.7-1.3,2.2-4.4,2.2-5.1-2.6-5.9-6.3c-.4-1.3-.8-2.5-2.4-2.5s-.8.1-.8,1.8a11.8,11.8,0,0,0,.2,2.7c.2,1.3,1.6.9,1.6,2.3s-.7,1.7-5.2,1.7c-1.3,0-5.3,0-5.3-2s2.1-.4,2.1-4.1Zm6.5,1.3c-.1.7-.2,1.3.7,1.3s2.4-1,2.4-2.7-.3-2.8-1.9-2.8-1.1.6-1.1,1.5Z"/><path class="cls-2" d="M198.7,49.5c.9-1.9,2-4.4,2-6.6a3.1,3.1,0,0,1,3.4-3.4c2.5,0,4,2.5,5.1,4.4s4.7,9.4,5.7,11.7,2.4.8,2.4,2.4-3.9,1.9-5.3,1.9c-4,0-6.4,0-6.4-1.7s1.7-.9,1.7-1.8-.7-1.4-5.2-1.4c-1.5,0-2.4,0-2.4,1.4s1.8.4,1.8,1.8-3,1.7-4.1,1.7c-4,0-4.4-.7-4.4-1.6s1.5-.9,2.3-1.9a29.1,29.1,0,0,0,1.7-3Zm5.9,2c.3,0,1.1.1,1.1-.3a11.5,11.5,0,0,0-1-2.3c-.3-.4-.7-1.5-1.4-1.5s-1.1,1.7-1.2,2a9.5,9.5,0,0,0-.6,1.8c0,.4.7.3,1,.3Z"/><path class="cls-2" d="M229.9,51.9c-.1-.3-.3-1.2-.8-1.2s-.7.7-1.4,2.5L226,57.5c-.6,1.4-.9,2.4-2.7,2.4s-2-.9-2.5-2.2l-5.2-13.3c-.8-2-1.9-1-1.9-2.7s3.8-2,5-2c4.1,0,4.8.6,4.8,1.8s-.6.9-.6,1.8a15.2,15.2,0,0,0,1,3.2c.1.5.7,2.4,1.4,2.4s1.3-2,1.4-2.4a4.9,4.9,0,0,0,.4-1.1,4.6,4.6,0,0,0-1.4-2.5c-.6-.3-1.1-.6-1.1-1.3s-.4-1.9,5.5-1.9,5.3,1.3,5.3,1.7-1.3,1.2-1.3,1.9a10.7,10.7,0,0,0,1.3,3.1c.2.5.8,2.2,1.5,2.2s2.1-4.8,2.1-5.1-1.8-.6-1.8-2.2,2.8-1.6,4-1.6,3.2.1,3.2,1.7-1.1,1-1.9,3L237.7,57c-.6,1.5-1.2,2.9-2.8,2.9s-1.9-.7-2.4-1.9Z"/><path class="cls-2" d="M244.9,49.8c0-6,4.8-10.2,10.9-10.2,7.7,0,10.7,6.8,10.7,10.4,0,6.1-5.3,10-11.1,10A10.1,10.1,0,0,1,244.9,49.8ZM252,37.7c0-1.1,1.9-1.5,1.9-2.3s-.2-.3-.2-.6,1.9-.9,2.4-.9,3.4.3,3.4,1.6-2.2,3.3-6,3.3C252.8,38.8,252,38.6,252,37.7Zm2.5,6.1c-1.6,0-2.4,1.6-2.4,3s1.7,9.1,4.7,9.1,2.5-1.5,2.5-3S257.8,43.8,254.5,43.8Z"/><path class="cls-2" d="M139.3,19.8c0-2.1-.1-2.5-.3-2.8s-1-.5-1-1.1,3.3-1.1,3.6-1.1,2.9,0,2.9,1.1-.6.5-1,.9a7.8,7.8,0,0,0-.3,3v1.5c0,2.9.2,2.8.5,3s.8.3.8.8-.1,1.2-3.6,1.2c-.7,0-2.7,0-2.7-1s.5-.6.8-.9.3-.8.3-3.1Z"/><path class="cls-2" d="M146.5,26.2c-.5,0-1.3,0-1.3-.7s1.2-.2,1.3-2.1V20.3c0-1-.1-1.9-.1-2.8S145,16.9,145,16s2.5-1.2,3.3-1.2c3.2,0,3.3.5,3.3,1s-1.2.3-1.2,1.8v5.1c0,1.1.1,1.7,1.3,1.7,2.7,0,1.8-2.2,2.8-2.2s1,.7,1,1.3-.9,2.9-1.6,2.9h-7.4Z"/><path class="cls-2" d="M162.2,14.9a7.9,7.9,0,0,0,2.7-.3c.9,0,1.3,1.6,1.3,2.3s-.2,1.1-.8,1.1-.3-1.5-3.3-1.5-1.6.3-1.6,2.2,0,.9,1,.9.3-1.8,1.5-1.8,1,1.9,1,2.5-.2,2.6-1.1,2.6,0-1.7-1.6-1.7-.7.6-.7,1.1c0,2.3.2,2.2,1.8,2.2,3.3,0,2.4-2.2,3.7-2.2a.9.9,0,0,1,.8,1c0,1.1-.9,3-1.5,3h-8.6c-1.1,0-1.1-.5-1.1-.7s1.1-.2,1.2-1.9a25.3,25.3,0,0,0,0-5.5c-.1-2.5-1.3-1.2-1.3-2.3s1.3-.9,2-.9Z"/><path class="cls-2" d="M173.6,19.8c0-2.1-.2-2.5-.4-2.8s-.9-.5-.9-1.1,3.2-1.1,3.5-1.1,3,0,3,1.1-.6.5-1,.9a7.8,7.8,0,0,0-.3,3v1.5c0,2.9.2,2.8.5,3s.8.3.8.8-.2,1.2-3.7,1.2c-.7,0-2.7,0-2.7-1s.6-.6.8-.9.4-.8.4-3.1Z"/><path class="cls-2" d="M180.6,19.6a17.7,17.7,0,0,0,0-2.3c-.2-1.4-1.3-.8-1.3-1.7s.7-.8,1.3-.8h8.3c.7,0,1.3,1.3,1.3,2.4s-.2,1.1-.8,1.1-.6-1.7-3.6-1.7c-1,0-1.4,0-1.4,2.3,0,.3,0,.5.9.5s.5-1.4,1.6-1.4,1,1.7,1,2.3-.1,2.7-1.2,2.7,0-1.8-1.7-1.8-.6.1-.6,1.8,1.5,1,1.5,2.3.2,1-3.7,1-3-.3-3-1,.9-.5,1.2-1.4a6.8,6.8,0,0,0,.2-2.1Z"/><path class="cls-2" d="M191.9,20.4a10,10,0,0,0,1.2-3.8,1.7,1.7,0,0,1,1.9-1.9c1.4,0,2.3,1.4,2.9,2.4s2.7,5.4,3.3,6.7,1.4.5,1.4,1.4-2.3,1.1-3.1,1.1-3.7,0-3.7-1,1-.5,1-1-.4-.8-3-.8c-.8,0-1.3,0-1.3.8s1,.2,1,1.1-1.7.9-2.3.9c-2.3,0-2.5-.4-2.5-.9s.8-.5,1.3-1.1a5.6,5.6,0,0,0,.9-1.7Zm1.6-6.8c0-.6,1.1-.9,1.1-1.3s-.1-.2-.1-.4,1.1-.4,1.3-.4,2,.1,2,.9-1.3,1.8-3.4,1.8C193.9,14.2,193.5,14.2,193.5,13.6Zm1.8,7.9c.2,0,.6.1.6-.2a4.9,4.9,0,0,0-.6-1.3c-.1-.2-.4-.8-.7-.8s-.7.9-.7,1.1a4.2,4.2,0,0,0-.4,1c0,.3.4.2.6.2Z"/><circle class="cls-3" cx="37.5" cy="37.5" r="37.5"/><circle class="cls-4" cx="37.5" cy="37.5" r="32.3"/><circle class="cls-5" cx="38" cy="36.6" r="26"/><circle class="cls-6" cx="37.5" cy="37.5" r="20.8"/><path class="cls-7" d="M35.4,39.2a2.2,2.2,0,0,0,0-1.4,3.7,3.7,0,0,1,.7-1.6l1.1-1.7,2.1-3.3c.1-.2-.4-.5-.5-.2l-2.1,3.3-1,1.7a5.5,5.5,0,0,0-.8,1.5c-.1.5.2,1,0,1.5s-.8.8-1.3,1.1-2,1.1-1.9,2a.3.3,0,0,0,.5,0c-.1-1,1.5-1.5,2.4-2.1A2,2,0,0,0,35.4,39.2Z"/><path class="cls-7" d="M54.1,49.5c-1.3-.4-2.7-.6-4-.9L46,47.8a49.9,49.9,0,0,1-7.8-2.2.5.5,0,0,0,.4-.2h0c1,.3,2,.4,2.7-.4h0a3.2,3.2,0,0,0,2.2-.7c.1,0,.1-.1.1-.2a1.7,1.7,0,0,0,1.4-.3.8.8,0,0,0,.3-.8,1.4,1.4,0,0,0,.9-1.4,4.1,4.1,0,0,0,1.1-.7c.1-.1.1-.2,0-.2a1.3,1.3,0,0,0,1-1.1c.3-.1.5-.3.5-.5s0-.4-.2-.6a.5.5,0,0,0,0-1,.5.5,0,0,0-.2-.9,2.3,2.3,0,0,0,.7-.7.9.9,0,0,0-.7-1.3l.2-.2c.2-.3.4-.8,0-1.1a.5.5,0,0,0-.5-.3.8.8,0,0,0,.2-.5.9.9,0,0,0-.3-1.2h-.4a1.2,1.2,0,0,0-.1-1.4h-.4l-.5.3a2,2,0,0,0-.1-1.7c0-.1-.2-.1-.3-.1h-.3c.2-.4.2-.9-.3-1.1a.9.9,0,0,0-1.2.1h0v-.2a1.1,1.1,0,0,0,.3-.6c0-.4-.4-.6-.9-.6s-1.1.4-1.5.7l-1.5,1.4-2.1,2.1a2.1,2.1,0,0,0-.7-1.4,1.1,1.1,0,0,0-1.1-.3,1.9,1.9,0,0,0,0-1.3,1.7,1.7,0,0,0-1.3-.8,1.8,1.8,0,0,0-.2-1,1.1,1.1,0,0,0-1.1-.6A2.1,2.1,0,0,0,33,22.7h-.2a2.9,2.9,0,0,0-.2-.9,1.1,1.1,0,0,0-.9-.8,1,1,0,0,0-.9.4c-.2-.7-.7-1.8-1.6-1.6s-.6.6-.6.9-.3,1.4-.4,2a3.5,3.5,0,0,0-.3,1.4c-.4-.2-.8-.3-1.1.1s-.3,1.5-.2,2.1a24.5,24.5,0,0,1,.2,2.7,20.5,20.5,0,0,0,1,4.8c.6,1.5,1.7,3,1.5,4.5h-.2a2.6,2.6,0,0,0-1.8-.4,2,2,0,0,0-2,2.5h0a2,2,0,0,0-.2,1.1c0,.2.4.3.5.1l.6-.5h.4a5.1,5.1,0,0,0-1.1,2.5,2.7,2.7,0,0,0,1.3,2.2c.7.7,1.9,1.1,2.5,1.8s-.4,2-1.4,2.6h0l-2-.4a3.2,3.2,0,0,0-1.4.1c-.9.4-1,1.2-.2,1.7s.4.1.4-.1l.3-.4a2,2,0,0,0,.1.7c.1.2.4.1.5,0s.6-.8,1.2-.5l.8.2a1.2,1.2,0,0,0,1-.2h.3a1.2,1.2,0,0,0,1-.2,1,1,0,0,0,.9.2l.5.7a.3.3,0,0,0,.5-.1c.2-.4.7.3.8.4s.4.3.5,0,.4-.1.7,0l.9.3c.2.1.4,0,.4-.1v-.4c.4.1,1.1.5,1.4,0a.4.4,0,0,0,.1-.3h1.6a11.3,11.3,0,0,0,6.2,2.2c.2,0,.3-.1.3-.2a3.9,3.9,0,0,0-.8-1.4l1.1.4a5.3,5.3,0,0,0,1.8.5c.9,0,.3-.9-.3-1.6l.9.3a6.9,6.9,0,0,0,3.5.3c.2,0,.3-.2.1-.4a17.1,17.1,0,0,0-2.7-1.4l1-.3a17.4,17.4,0,0,0,3.2.1,6.2,6.2,0,0,0,1.6-.4C54.4,49.9,54.5,49.6,54.1,49.5Zm-25-14.2a14.3,14.3,0,0,1-1.3-3.8,30.1,30.1,0,0,1-.5-4.2,12.3,12.3,0,0,1-.2-2,.6.6,0,0,0-.1-.4s.2-.8.5-.5a.8.8,0,0,1,.2.4V25h0a12.8,12.8,0,0,0,.6,5.1c.1.3.6.2.5-.1a12,12,0,0,1-.5-5v-.4a.6.6,0,0,1,.1-.4c.1-.9.5-1.8.6-2.8a1.3,1.3,0,0,0,.1-.6v-.3c0-.3.4-.4.6-.1a1.9,1.9,0,0,1,.6,1.3V22a6,6,0,0,0-.2,1.2,25.5,25.5,0,0,0-.2,3.9c0,1.3-.1,2.7-.1,4s.6.3.6,0c0-2,.1-4,.1-6a9.2,9.2,0,0,1,.4-2.9.9.9,0,0,1,.3-.6c.4-.4.7.1.7.4a2.2,2.2,0,0,1,.2,1.4c0,.1.1.1.2.1a24.3,24.3,0,0,0-1,5.9c0,.3.6.3.6,0a21.2,21.2,0,0,1,1.1-6.1,1.5,1.5,0,0,1,.7,1.5,7.6,7.6,0,0,1-.3,2.1,25.7,25.7,0,0,0-.8,3.8c0,.3.6.3.6,0s.7-3.1.9-4.7a3.6,3.6,0,0,0,.2-1.1c.9-.3.7,1.5.6,1.8a12.1,12.1,0,0,1-.5,1.8l-.9,3.6c-.1.3.4.4.5.1s.9-3.4,1.4-5.1.1-.4.1-.6,1,1.2.8,1.7a12.7,12.7,0,0,1-.6,1.8c-.5,1.3-1.2,2.6-1.8,3.9s.4.3.5.1a35.2,35.2,0,0,0,2.2-4.9.4.4,0,0,0,.1-.3H37c.3-.4.9.2,1,.4a2.7,2.7,0,0,1,.3,1.2h0l-.4.5a17.2,17.2,0,0,0-2.2,3.3,9.3,9.3,0,0,1-2.4,3.3c-.8.6-1.7,1.1-2.5,1.8h0a3.1,3.1,0,0,1-1-.5A5.3,5.3,0,0,0,29.1,35.3ZM53.4,49.9l-1,.2a17.1,17.1,0,0,1-3.9-.3,39,39,0,0,1-7.6-2.2c-.3-.1-.6.3-.3.4a43,43,0,0,0,8,2.2,8.7,8.7,0,0,1-2.3.1l-2.8-.5a16.7,16.7,0,0,1-5.2-1.6.3.3,0,1,0-.3.4,19.2,19.2,0,0,0,5.9,1.7,15.5,15.5,0,0,0,3.1.4h.4a13,13,0,0,1,2.9,1.4,8.4,8.4,0,0,1-3.1-.5l-1.1-.4h-.2l-2.2-.7c-.3-.1-.5.3-.1.4l2.1.7.7.8.4.5c0,.1-.7-.1-.7-.1l-2.7-1-.6-.4c-.2-.2-.6.1-.4.3l.5.4H43a4.2,4.2,0,0,1,1.1,1.6,12,12,0,0,1-6-2.5H38l-.3-.6c-.2-.2-.7,0-.5.2l.5.9H36.5l-.6-1c-.2-.2-.6,0-.5.2a5.6,5.6,0,0,1,.7,1.3l-.7-.2h-.5c-.2.1-.3.1-.3.3v.2c-.6-.2-1.3-.5-1.7-.3a1.5,1.5,0,0,0-.8-.4h-.5l-.4-.6a.2.2,0,0,0-.4-.1.4.4,0,0,1-.5,0c-.1-.2-.4-.3-.5-.1h-.2a.4.4,0,0,1-.6,0c.1-.1,0-.2-.2-.3h-.3a1,1,0,0,1-1.1.4l-.9-.4a1.2,1.2,0,0,0-.9.3c0-.1,0-.1.1-.2s-.1-.3-.3-.3a1.9,1.9,0,0,0-1,.5.5.5,0,0,1,.1-.6c.3-.3.9-.2,1.2-.2l2.1.4h.5c.9-.5,1.9-1.2,1.9-2.1s-.7-1.4-1.5-1.9a6.5,6.5,0,0,1-2.5-2.1c-.5-1.1.3-2.2.9-3.2h.1c.3.2.5-.2.2-.3a.8.8,0,0,0-.6-.2c.1-.2-.1-.3-.4-.3l-.7.4a.8.8,0,0,1,.2-.5.4.4,0,0,0-.1-.3,1.8,1.8,0,0,1,2.3-1.9,3.4,3.4,0,0,1,1.4.9l1,.5a.5.5,0,0,0-.3.4,1.8,1.8,0,0,0,.1,2.5,2.4,2.4,0,0,0,1.1.6c.3,0,.5-.4.1-.4a1.5,1.5,0,0,1-.9-2.4A9.1,9.1,0,0,1,33.4,38c2.1-1.5,2.6-3.6,3.8-5.4a29.8,29.8,0,0,1,2.3-2.7c.9-.9,1.8-1.9,2.8-2.8l.7-.5.4-.3h.2q.4-.3.6.3A8.7,8.7,0,0,1,42.9,28l-.3.4h0c-.1,0-.1,0-.1.1l-2.1,2.6c-.2.3.3.5.5.2l2.2-2.7,1.1-.9.6-.4c.5-.1.7,0,.6.4l-.2.3a17,17,0,0,1-1.5,2.2,22.7,22.7,0,0,1-4.1,4.1c-.3.2.1.5.4.3a24.9,24.9,0,0,0,5-5.3l.3-.4c.1,0,.2,0,.2-.1l.6-.4c.7,2.6-3.2,4.5-4.7,6.6-.2.2.3.4.5.2s3.2-2.9,4.3-4.5h.2a4.6,4.6,0,0,1,.7-.7c.3.6-.1,1.1-.5,1.6a15.9,15.9,0,0,1-1.3,1.3,21.2,21.2,0,0,1-3.1,2.8c-.2.2.2.5.4.3a35.2,35.2,0,0,0,3.5-3.1l1.1-1.2c.1,0,.3-.1.3-.2h.3a.4.4,0,0,1,0,.5c0,.1-.1.2-.1.3a2.2,2.2,0,0,1-.5.8,10.9,10.9,0,0,1-1.7,1.3c-.3.2.1.5.4.3a6.5,6.5,0,0,0,1.8-1.5h.2c.3-.3.3.3.3.3a.8.8,0,0,1-.2.5,2.7,2.7,0,0,1-.7.8,10.7,10.7,0,0,1-2.1,1.3c-.3.2,0,.5.3.4a10,10,0,0,0,2.6-1.8h0c.7-.1.5.6.4.8l-.5.5a5.2,5.2,0,0,1-1.5.7c-.3.1-.1.5.2.4l1.2-.5H48v.5c-.2.1-.2.4,0,.4s.4.5,0,.5-.4.4,0,.4.1.5-.1.6a1.7,1.7,0,0,1-1.2,0L45,38.9a26.7,26.7,0,0,0-4,.1c-.3.1-.2.5.2.4h3.1l3.1.3h.3c-.1.6-1.2.6-1.8.6a5.4,5.4,0,0,0-2.2,0c-.3,0-.2.4.2.4a26.1,26.1,0,0,1,2.8,0c-.9.7-2.4.5-3.5.3s-.5.4-.1.4a7.1,7.1,0,0,0,2.5.2c.1.4-.2.7-.6,1l-.3-.2L43,41.9l-1.9-.4c-.3-.1-.5.3-.1.4l2.3.5,1.2.3c.7.2-.1.7-.4.8a5.8,5.8,0,0,1-2.6-.5L39,42.4c-.4-.1-.5.3-.2.4l3.6.9.6.2c-1.4,1.1-3.5,0-4.7-.7s-.7.2-.4.3a9.9,9.9,0,0,0,2.8,1.2c-1,1.2-3.3-.5-4.1-1.1s-.7.2-.4.3a10.5,10.5,0,0,0,1.9,1.2c-1.3,1.2-3.2-1-4.2-1.4s-.6.2-.3.3,1.6,1.2,2.6,1.7a3.2,3.2,0,0,0,1.4.1h.1c4.4,1.7,9.3,2.5,14,3.5l1.7.4h0Z"/><path class="cls-7" d="M26.9,39.3c-.4,0-.4.5,0,.5S27.3,39.3,26.9,39.3Z"/><ellipse class="cls-8" cx="37.5" cy="66.3" rx="3.5" ry="2.3"/><path class="cls-9" d="M40.8,66.7l-1,.3c-.2.1-.4.1-.4.2s-.8-.1-.6,1.3c-.7-1.3-1-1.3-1.8-1s0-.2,0-.3-.3,0-.1.1-.9-.2-.8,1.5c-.6-1.7-.8-1.7-1.6-1.4s.2-.4-.1-.4l-.2-.2h-.1a.1.1,0,0,1,.1-.1l.2-.2c.3,0,.5,0,0-.4s1.1.3,1.9-1.8c-.3,2,0,2,.7,1.9s-.1.1,0,0v-.3c0,.2.2.2.3.2s1-.1,2-1.5c-.7,1.7-.4,1.7.1,1.7h.4C40.4,66.4,40.8,66.5,40.8,66.7Z"/><ellipse class="cls-8" cx="45.1" cy="65.3" rx="3.5" ry="2.3" transform="translate(-16.8 15.7) rotate(-16.7)"/><path class="cls-9" d="M48.3,64.7l-.8.6-.4.3c-.5,0-.7.1-.2,1.4-1.1-1.1-1.4-1-2-.4s0-.3-.1-.3-.3,0-.1.1-.9.1-.3,1.6c-1-1.4-1.3-1.4-1.9-.8s.1-.5-.2-.4h-.4v-.2h.1c.3-.2.5-.2-.1-.4.9,0,1.1-.1,1.3-2.4.3,2.1.5,2,1.2,1.7h0v-.3c.1.2.2.2.4.1s.9-.4,1.4-2c-.1,1.9.2,1.8.6,1.6s.3,0,.5,0S48.3,64.5,48.3,64.7Z"/><ellipse class="cls-8" cx="52.2" cy="62.6" rx="3.5" ry="2.3" transform="translate(-21.3 27.3) rotate(-24.5)"/><path class="cls-9" d="M55.3,61.5c0,.2-.3.4-.8.8s-.3.2-.3.3-.7.3,0,1.4c-1.2-.9-1.5-.7-2-.1s-.1-.3-.2-.3-.2.1,0,.2-.9.1-.2,1.6c-1.2-1.3-1.4-1.2-1.9-.5s0-.6-.3-.4h-.2c-.1,0-.2,0-.2-.1h.1c0-.1.1-.2,0-.2s.5-.3-.1-.4,1.1-.2,1-2.5c.5,2,.8,1.9,1.3,1.5s0,.1.1,0-.1,0-.2-.2.3,0,.4,0,.9-.6,1.2-2.2c.1,1.8.4,1.7.8,1.5h.4C54.8,61.5,55.2,61.4,55.3,61.5Z"/><ellipse class="cls-8" cx="58.2" cy="57.8" rx="3.5" ry="2.3" transform="translate(-23.8 55.4) rotate(-43.1)"/><path class="cls-9" d="M60.8,55.8c.1.1-.1.5-.5.9a1.7,1.7,0,0,0-.2.5c-.4.2-.5.4.5,1.3-1.4-.5-1.7-.2-2,.5s-.1-.2-.2-.2-.2.2,0,.2-.8.4.4,1.6c-1.6-.9-1.7-.7-2,.1s-.2-.5-.4-.3-.2,0-.3,0h-.2v-.2A.3.3,0,0,0,56,60c.2-.2.3-.4-.3-.3s1-.6.1-2.7c1.2,1.8,1.4,1.6,1.8,1s0,.2.1,0l-.3-.2c.2.1.3,0,.4-.1s.6-.8.4-2.4c.7,1.7.9,1.5,1.3,1.1s.2,0,.4-.2S60.7,55.7,60.8,55.8Z"/><ellipse class="cls-8" cx="62.8" cy="51.5" rx="3.5" ry="2.3" transform="translate(-13.5 79.5) rotate(-59.5)"/><path class="cls-9" d="M64.7,48.9c.2.1.1.5-.2,1s-.1.4,0,.5-.5.6.8,1.1c-1.5,0-1.7.3-1.7,1.1s-.3-.2-.3-.1-.2.2,0,.1-.6.7.8,1.4c-1.7-.3-1.8-.2-1.9.7s-.3-.4-.4-.1-.2,0-.3,0a.1.1,0,0,1-.1.1c-.1,0-.1-.1-.1-.2v-.2c.1-.3.2-.5-.4-.2s.8-.8-.6-2.6c1.6,1.3,1.8,1.1,2,.4s0,.2.1,0h-.3l.3-.2c.4-.5.4-.9-.3-2.5,1.2,1.5,1.3,1.2,1.5.7s.2-.1.4-.2S64.6,48.8,64.7,48.9Z"/><ellipse class="cls-8" cx="30" cy="65.4" rx="2.3" ry="3.5" transform="matrix(0.29, -0.96, 0.96, 0.29, -41.23, 75.42)"/><path class="cls-9" d="M26.8,64.8c0,.1.3.4.9.6s.4.2.3.3.8.2.2,1.4c1.1-1.1,1.4-1,2-.4a.4.4,0,0,1,.1-.3c.2,0,.3,0,.1.2s.9,0,.4,1.5c1-1.4,1.2-1.4,1.8-.8s0-.5.2-.4h.4a.1.1,0,0,0-.1-.1v-.2c-.3-.1-.4-.2.1-.4s-1.1-.1-1.3-2.3c-.3,2.1-.5,2-1.1,1.6s0,.2-.1.1a.4.4,0,0,0,.1-.3c0,.1-.2.1-.4.1s-.9-.5-1.4-2c.1,1.8-.1,1.7-.6,1.5H26.8Z"/><ellipse class="cls-8" cx="23" cy="62.7" rx="2.3" ry="3.5" transform="translate(-43.6 57.5) rotate(-65.5)"/><path class="cls-9" d="M19.8,61.7c0,.1.3.4.8.7s.4.2.3.4.7.2,0,1.3c1.2-.8,1.5-.7,2-.1s.1-.2.2-.2.3,0,0,.1.9.2.2,1.6c1.2-1.3,1.4-1.2,1.9-.5s.1-.5.3-.4h.4v-.2c-.1-.1-.2-.2-.1-.2s-.5-.3.1-.3-1.1-.3-1-2.6c-.5,2.1-.8,1.9-1.3,1.5s0,.2-.1.1l.2-.3a.3.3,0,0,1-.4,0c-.6-.1-.8-.5-1.2-2.1-.1,1.8-.3,1.7-.8,1.4s-.2,0-.4,0S19.9,61.6,19.8,61.7Z"/><ellipse class="cls-8" cx="16.9" cy="57.9" rx="2.3" ry="3.5" transform="translate(-36.9 30.7) rotate(-46.9)"/><path class="cls-9" d="M14.3,56c-.1.1.1.4.5.9s.3.3.2.4.6.5-.5,1.3c1.5-.4,1.7-.2,2,.6s.1-.3.2-.2.3.1,0,.1.8.4-.4,1.6c1.6-.8,1.8-.7,2.1.1s.1-.5.4-.3H19c.1.1.1.1.2,0h0c-.1-.1-.1-.2,0-.2s-.4-.4.2-.3-1-.6-.1-2.7c-1.2,1.7-1.4,1.5-1.8.9s0,.2-.1.1l.3-.2h-.4c-.5-.4-.6-.8-.4-2.5-.7,1.7-.9,1.5-1.3,1.1s-.2,0-.4-.1S14.4,55.9,14.3,56Z"/><ellipse class="cls-8" cx="12.3" cy="51.7" rx="2.3" ry="3.5" transform="translate(-24.5 13.4) rotate(-30.5)"/><path class="cls-9" d="M10.4,49.1c-.1,0-.1.4.2,1a.4.4,0,0,1,0,.5c.4.3.5.6-.8,1.1,1.5,0,1.7.2,1.8,1h.3c.1.1.1.2-.1.2s.6.6-.8,1.4c1.7-.4,1.8-.2,1.9.7s.3-.5.5-.2.1,0,.2.1h.2v-.2s0-.2.1-.2-.3-.4.3-.1-.8-.9.6-2.7c-1.6,1.3-1.7,1.1-1.9.4s-.1.2-.1.1.1-.1.3-.2-.3-.1-.4-.2-.4-.9.3-2.4c-1.1,1.4-1.3,1.2-1.5.7s-.2-.1-.3-.3S10.5,49,10.4,49.1Z"/><path class="cls-10" d="M7.4,34.4c.6,1.3,2,1.6,2.7.6a1.2,1.2,0,0,0,.3-.9,13.3,13.3,0,0,1,.3-2.8,23.7,23.7,0,0,1,1.1-4.6,24.7,24.7,0,0,1,3.8-7.2l1.5-1.9a.1.1,0,0,0,.1-.1.6.6,0,0,0,0-.6c-.2-.1-.4-.2-.5-.1s-.1.1-.1.2l-.8.6-1.5,1.5a19.9,19.9,0,0,0-2.9,3.6c-.7,1.1-1.3,2.2-1.9,3.3s-.8,1.8-1.1,2.7a28.1,28.1,0,0,0-.8,3.1l-.3,1.4A1.7,1.7,0,0,0,7.4,34.4Z"/><path class="cls-11" d="M8.9,33.9h1.3a2.2,2.2,0,0,1,.4,1.9,1.1,1.1,0,0,0,0,1,5.5,5.5,0,0,1-.3,2.6v.6H11l.2,2.7H11v.9l.7,2.1-1.9.2H7.9l.4-2.2v-.9H8l-.3-2.7h.7v-.5a4.8,4.8,0,0,1-.8-2.6,1.2,1.2,0,0,0-.1-1A2,2,0,0,1,7.6,34Z"/><path class="cls-12" d="M9.1,36.9a.2.2,0,0,1,.2-.2h0c.1,0,.1.1.1.2l.4,4.4a.3.3,0,0,1-.1.2H9.5Z"/><path class="cls-5" d="M63.9,42.8c2.8-1.8,3.6-5.2,3.9-8.2a13.4,13.4,0,0,0-.1-2,21.4,21.4,0,0,0-1.3-6.2l-.2,1a8,8,0,0,0-.3-1.5,12.2,12.2,0,0,0-2.3-4.2c.1.9.6,1.6.6,2.4A8,8,0,0,0,61.9,20l-1.2-1.1a4.7,4.7,0,0,0,1,1,2.9,2.9,0,0,1,.7,1.2l-1-1.2c-2.8-2.6-5.6-7.3-9.8-5.7,4.3.5,6.4,4.7,8.9,7.7l1.1,1.5A24.5,24.5,0,0,1,64,28.6a14.2,14.2,0,0,1,.8,1.8c.1.5.3,1,.4,1.5.7,2.5,1.5,4.9.5,7.5-.1-.7-.9-1.2-.5-2a7.4,7.4,0,0,1-.5,3.3Z"/><path class="cls-11" d="M67,34.4l1.4.3a1.9,1.9,0,0,1-.1,1.9,1.2,1.2,0,0,0-.3,1A5,5,0,0,1,66.9,40v.6h.7L67,43.4h-.3l-.2.9v2.2l-1.9-.4-1.9-.4.9-2,.2-.9h-.3l.6-2.7.6.2h.1v-.6a4.3,4.3,0,0,1,0-2.7,1.2,1.2,0,0,0,.1-1,1.8,1.8,0,0,1,.6-1.8Z"/><path class="cls-12" d="M66.2,36.5c0-.1.2-.2.4-.2h0c.2.1.3.2.3.4L65.4,44c0,.1-.2.2-.4.1h0a.3.3,0,0,1-.3-.3Z"/><ellipse class="cls-8" cx="16.3" cy="27.3" rx="2.7" ry="1.7" transform="translate(-15 33.1) rotate(-69.6)"/><ellipse class="cls-11" cx="14.3" cy="34.5" rx="2.7" ry="1.7" transform="translate(-22 43.4) rotate(-81.2)"/><ellipse class="cls-8" cx="14.8" cy="42.2" rx="1.7" ry="2.7" transform="translate(-4.7 2) rotate(-6.6)"/><ellipse class="cls-11" cx="17.6" cy="48.9" rx="1.7" ry="2.7" transform="translate(-22.1 15.3) rotate(-30)"/><ellipse class="cls-8" cx="58.1" cy="26" rx="1.7" ry="2.7" transform="translate(-5.5 25.2) rotate(-23.4)"/><ellipse class="cls-8" cx="60.4" cy="33.1" rx="1.7" ry="2.7" transform="translate(-5.5 13) rotate(-11.7)"/><ellipse class="cls-8" cx="60.6" cy="40.8" rx="2.7" ry="1.7" transform="translate(16.1 98.7) rotate(-86.4)"/><ellipse class="cls-8" cx="58.5" cy="47.8" rx="2.7" ry="1.7" transform="translate(-10.6 78.2) rotate(-63)"/><circle class="cls-13" cx="57.1" cy="50.4" r="0.3"/><circle class="cls-14" cx="56.8" cy="50.7" r="0.3"/><circle class="cls-13" cx="56.4" cy="51" r="0.3"/><circle class="cls-14" cx="56.1" cy="51.4" r="0.3"/><circle class="cls-13" cx="55.7" cy="51.7" r="0.3"/><circle class="cls-14" cx="57.5" cy="50.6" r="0.3"/><circle class="cls-14" cx="55.6" cy="52.1" r="0.3"/><circle class="cls-13" cx="55.4" cy="52.4" r="0.3"/><circle class="cls-14" cx="55.3" cy="52.8" r="0.3"/><circle class="cls-13" cx="57.3" cy="50.9" r="0.3"/><circle class="cls-14" cx="57.4" cy="51.4" r="0.3"/><circle class="cls-13" cx="57.4" cy="51.9" r="0.3"/><circle class="cls-14" cx="57.5" cy="52.3" r="0.3"/><circle class="cls-13" cx="57.3" cy="52.7" r="0.3"/><circle class="cls-14" cx="57.2" cy="53.1" r="0.3"/><circle class="cls-13" cx="57" cy="53.5" r="0.3"/><circle class="cls-14" cx="57.3" cy="49.9" r="0.3"/><circle class="cls-13" cx="57.5" cy="50.2" r="0.3"/><circle class="cls-13" cx="55.2" cy="53.2" r="0.3"/><circle class="cls-14" cx="55" cy="53.7" r="0.3"/><circle class="cls-13" cx="54.7" cy="54" r="0.3"/><circle class="cls-14" cx="56.8" cy="53.9" r="0.3"/><circle class="cls-13" cx="56.7" cy="54.3" r="0.3"/><circle class="cls-14" cx="56.5" cy="54.7" r="0.3"/><path class="cls-15" d="M15.2,29.1c-.5,1.9-.7,3.5-.3,3.6"/><path class="cls-15" d="M13.9,36.8c0,1.9.3,3.5.7,3.5"/><path class="cls-15" d="M38.8,15.3c-5.1-3.8-14.8.9-21.6,10.3"/><path class="cls-15" d="M37.5,15.3c4.7-3.5,13.6.6,19.8,9.1"/><polygon class="cls-2" points="38.4 14.7 45.6 14.4 38.5 14.1 43.2 9 38 13.6 37.6 6.7 37.2 13.7 31.9 9 36.7 14.1 29.6 14.4 36.8 14.7 31.9 19.9 37.3 15.2 37.6 22.1 37.9 15.3 43.2 19.9 38.4 14.7"/><path class="cls-15" d="M14.9,44.2c.6,1.8,1.3,3.2,1.8,3.1"/><path class="cls-15" d="M59.1,27.9c.9,1.7,1.3,3.3.9,3.5"/><path class="cls-15" d="M60.8,34.9c.3,2.2.2,4.1-.3,4.1"/><path class="cls-15" d="M60.7,42.4c-.3,2.2-1,4-1.4,3.9"/></g></g></svg>