<svg id="Capa_1" enable-background="new 0 0 512 512" height="512" viewBox="0 0 512 512" width="512" xmlns="http://www.w3.org/2000/svg"><g><path d="m275.5 357.5h-39c-12.406 0-22.5 10.093-22.5 22.5s10.094 22.5 22.5 22.5h39c12.406 0 22.5-10.093 22.5-22.5s-10.094-22.5-22.5-22.5zm0 30h-39c-4.136 0-7.5-3.364-7.5-7.5s3.364-7.5 7.5-7.5h39c4.136 0 7.5 3.364 7.5 7.5s-3.364 7.5-7.5 7.5z"/><path d="m403 112.5c-5.817 0-11.249 1.67-15.852 4.547-7.45-65.77-63.419-117.047-131.148-117.047s-123.698 51.277-131.148 117.047c-4.603-2.877-10.035-4.547-15.852-4.547-16.542 0-30 13.458-30 30v57.5c0 26.468 19.692 48.412 45.192 51.98 1.489 28.09 11.918 55.039 29.808 76.802v81.218c0 56.243 45.757 102 102 102s102-45.757 102-102v-81.218c17.89-21.763 28.319-48.712 29.808-76.802 25.5-3.568 45.192-25.512 45.192-51.98v-57.5c0-16.542-13.458-30-30-30zm-37.802-22.5c1.873 4.854 3.433 9.861 4.651 15h-227.699c1.219-5.139 2.778-10.146 4.651-15zm-7.055-15h-84.036l42.837-42.837c17.13 10.496 31.361 25.276 41.199 42.837zm-55.125-50.125-47.018 47.019-47.018-47.018c14.397-6.345 30.302-9.876 47.018-9.876s32.621 3.531 47.018 9.875zm-107.962 7.288 42.837 42.837h-84.036c9.838-17.561 24.068-32.341 41.199-42.837zm-101.056 167.837v-57.5c0-8.271 6.729-15 15-15s15 6.729 15 15v94.245c-17.096-3.484-30-18.635-30-36.745zm135 292.706v-49.652l21.853 21.761c1.405 1.4 3.309 2.186 5.292 2.186 2.005-.004 3.911-.798 5.314-2.208l21.541-21.632v49.545c-8.504 2.783-17.578 4.294-27 4.294s-18.496-1.511-27-4.294zm144-247.706c0 27.94-10.012 54.99-28.19 76.166-1.168 1.36-1.81 3.093-1.81 4.885v83.949c0 32.75-18.193 61.327-45 76.168v-61.168c0-3.036-1.831-5.773-4.637-6.932-2.809-1.159-6.035-.512-8.178 1.64l-29.063 29.186-29.33-29.208c-2.147-2.138-5.371-2.776-8.169-1.612-2.799 1.163-4.623 3.895-4.623 6.926v61.168c-26.807-14.841-45-43.418-45-76.168v-83.949c0-1.792-.642-3.525-1.81-4.885-18.178-21.176-28.19-48.226-28.19-76.166v-51.5c0-23.986 19.514-43.5 43.5-43.5 18.024 0 33.521 11.02 40.112 26.676-7.747-3.713-16.28-5.676-25.112-5.676-15.602 0-30.275 6.112-41.316 17.21-2.911 2.926-2.911 7.653 0 10.579 11.041 11.099 25.714 17.211 41.316 17.211s30.275-6.112 41.316-17.21c1.456-1.463 2.183-3.376 2.183-5.29 0-32.257-26.243-58.5-58.5-58.5-17.254 0-32.783 7.513-43.5 19.435v-22.435c0-4.051.208-8.054.611-12h232.777c.404 3.946.611 7.949.611 12v22.435c-10.715-11.922-26.244-19.435-43.498-19.435-32.257 0-58.5 26.243-58.5 58.5v104h-30v-67.441c0-4.142-3.357-7.5-7.5-7.5s-7.5 3.358-7.5 7.5v74.941c0 4.142 3.357 7.5 7.5 7.5h45c4.143 0 7.5-3.358 7.5-7.5v-96.455c8.615 4.857 18.358 7.455 28.5 7.455 15.602 0 30.275-6.112 41.316-17.21 2.911-2.926 2.911-7.653 0-10.579-11.041-11.099-25.714-17.211-41.316-17.211-8.832 0-17.365 1.962-25.112 5.676 6.591-15.656 22.088-26.676 40.112-26.676 23.986 0 43.5 19.514 43.5 43.5zm-151.167-51.5c-7.129 4.877-15.534 7.5-24.333 7.5s-17.204-2.623-24.333-7.5c7.129-4.877 15.534-7.5 24.333-7.5s17.204 2.623 24.333 7.5zm68.334 0c7.129-4.877 15.534-7.5 24.333-7.5s17.204 2.623 24.333 7.5c-7.129 4.877-15.534 7.5-24.333 7.5s-17.204-2.623-24.333-7.5zm127.833 6.5c0 18.11-12.904 33.261-30 36.745v-94.245c0-8.271 6.729-15 15-15s15 6.729 15 15z"/></g></svg>