<svg xmlns="http://www.w3.org/2000/svg" viewBox="0 0 229.1 194.4"><defs><style>.cls-1{fill:#212122;}.cls-2{fill:#603813;}.cls-3{fill:#ffeee9;stroke:#b3b3b3;}.cls-3,.cls-5,.cls-6,.cls-7,.cls-8{stroke-miterlimit:10;}.cls-3,.cls-5{stroke-width:0.25px;}.cls-4{fill:#42210b;}.cls-5{fill:#fdfdfc;stroke:#998675;}.cls-6{fill:#096609;}.cls-6,.cls-7{stroke:#000;stroke-width:0.12px;}.cls-7{fill:#e0ff03;}.cls-8{fill:none;stroke:#666;}</style></defs><title>ogbese_1</title><g id="Capa_2" data-name="Capa 2"><g id="Capa_1-2" data-name="Capa 1"><circle class="cls-1" cx="114.9" cy="97.2" r="97.2"/><circle class="cls-2" cx="115.1" cy="98.7" r="77.8"/><path class="cls-3" d="M.8,89.1c2,4.7,7.4,6.1,9.9,2.4a6.6,6.6,0,0,0,1.2-3.4A91.1,91.1,0,0,1,13,77.6a102.9,102.9,0,0,1,4.1-17,89.7,89.7,0,0,1,14.4-27c1.8-2.4,3.7-4.7,5.6-7.1l.4-.6a1.9,1.9,0,0,0-.3-2,1.3,1.3,0,0,0-1.8-.3l-.5.4-2.7,2.5c-2,1.8-4,3.6-5.9,5.6A89.2,89.2,0,0,0,15.5,45.5,113.4,113.4,0,0,0,8.6,57.9c-1.5,3.3-2.8,6.7-4,10.1A112.2,112.2,0,0,0,1.3,79.3C1,81.1.6,82.9.3,84.6A7.8,7.8,0,0,0,.8,89.1Z"/><path class="cls-4" d="M6.2,87.3l4.9-.4a7.4,7.4,0,0,1,1.5,6.9,5,5,0,0,0,0,3.8,19.3,19.3,0,0,1-1.1,9.9l.2,2.1v.4l2.5-.2.8,10H14l.3,3.3,2.6,7.9-7.1.6-7,.6L4.1,124l-.3-3.3H2.9l-.9-10,2.5-.2v-.4l-.2-2.1a19.6,19.6,0,0,1-2.7-9.6A5.1,5.1,0,0,0,1,94.8a7.2,7.2,0,0,1,.4-7.1Z"/><path class="cls-2" d="M7.2,98.4a.6.6,0,0,1,.5-.6h0a.8.8,0,0,1,.7.5L9.7,115a.7.7,0,0,1-.5.7h0a.7.7,0,0,1-.7-.6Z"/><path class="cls-1" d="M211.7,120.4C222,113.9,225,101,226.1,89.9a62.6,62.6,0,0,0-.1-7.5,83,83,0,0,0-5-23.1l-.7,3.9a29.6,29.6,0,0,0-1.3-5.9c-2.2-5.8-4.5-10.9-8.4-15.5.2,3.2,2.1,5.9,2.4,9.1a32.3,32.3,0,0,0-8.8-15.6,42.8,42.8,0,0,0-4.5-4,41.9,41.9,0,0,0,3.6,3.8,10.6,10.6,0,0,1,2.9,4.4q-1.6-2.1-3.9-4.5c-10.2-9.8-20.7-27.3-36.7-21.3,16.3,1.9,23.9,17.4,33.5,28.6,1.4,1.9,2.8,3.8,4,5.8a88.3,88.3,0,0,1,9.1,19.4c1,2.2,1.9,4.5,2.7,6.8s1.2,3.6,1.7,5.3c2.5,9.4,5.7,18.6,1.7,28.2-.4-2.4-3.2-4.5-1.9-7.4.9,4.1-.7,8.5-1.6,12.1S211.7,120.4,211.7,120.4Z"/><path class="cls-4" d="M223.4,89.2l5,1a7.2,7.2,0,0,1-.4,7.1,4.7,4.7,0,0,0-1.1,3.6,18.5,18.5,0,0,1-3.9,9.2l-.4,2.1v.4l2.6.5-2,9.8-1-.2-.6,3.2.4,8.4-7.3-1.5-7.2-1.4,3.6-7.6.6-3.2-.9-.2,1.9-9.8,2.6.5v-.4l.4-2.1a18.9,18.9,0,0,1,0-9.9,4.6,4.6,0,0,0,.4-3.8,7.2,7.2,0,0,1,2.4-6.7Z"/><path class="cls-2" d="M220.3,97.1c.1-.5.7-.8,1.4-.7h0c.7.1,1.2.7,1.1,1.2l-5.5,27.2a1.1,1.1,0,0,1-1.4.7h0c-.7-.1-1.2-.7-1.1-1.2Z"/><ellipse class="cls-4" cx="94.7" cy="92.6" rx="6.3" ry="10.2"/><ellipse class="cls-5" cx="138" cy="64.8" rx="6.3" ry="10.2"/><ellipse class="cls-5" cx="138.2" cy="92.8" rx="6.3" ry="10.2"/><ellipse class="cls-5" cx="94.2" cy="64.8" rx="6.3" ry="10.2"/><ellipse class="cls-4" cx="94.5" cy="145.7" rx="6.3" ry="10.2"/><ellipse class="cls-5" cx="94" cy="117.9" rx="6.3" ry="10.2"/><ellipse class="cls-5" cx="138.1" cy="118.9" rx="6.3" ry="10.2"/><ellipse class="cls-5" cx="138.3" cy="147" rx="6.3" ry="10.2"/><circle class="cls-6" cx="137.3" cy="154.9" r="1.2"/><circle class="cls-7" cx="136" cy="156.1" r="1.2"/><circle class="cls-6" cx="134.8" cy="157.3" r="1.2"/><circle class="cls-7" cx="133.5" cy="158.4" r="1.2"/><circle class="cls-6" cx="132.2" cy="159.6" r="1.2"/><circle class="cls-7" cx="138.8" cy="155.5" r="1.2"/><circle class="cls-7" cx="131.6" cy="161.1" r="1.2"/><circle class="cls-6" cx="131.1" cy="162.5" r="1.2"/><circle class="cls-7" cx="130.5" cy="164" r="1.2"/><circle class="cls-6" cx="138.2" cy="156.9" r="1.2"/><circle class="cls-7" cx="138.4" cy="158.7" r="1.2"/><circle class="cls-6" cx="138.6" cy="160.4" r="1.2"/><circle class="cls-7" cx="138.7" cy="162.1" r="1.2"/><circle class="cls-6" cx="138.2" cy="163.6" r="1.2"/><circle class="cls-7" cx="137.6" cy="165" r="1.2"/><circle class="cls-6" cx="137" cy="166.5" r="1.2"/><circle class="cls-7" cx="138" cy="153.2" r="1"/><circle class="cls-6" cx="138.8" cy="154" r="1"/><circle class="cls-6" cx="130.1" cy="165.5" r="1.2"/><circle class="cls-7" cx="129.3" cy="167.1" r="1.2"/><circle class="cls-6" cx="128.1" cy="168.2" r="1.2"/><circle class="cls-7" cx="136.3" cy="167.8" r="1.2"/><circle class="cls-6" cx="135.9" cy="169.4" r="1.2"/><circle class="cls-7" cx="135.1" cy="170.9" r="1.2"/><line class="cls-8" x1="94.4" y1="73.1" x2="94.4" y2="86.1"/><line class="cls-8" x1="94.4" y1="98.6" x2="94.4" y2="111.6"/><line class="cls-8" x1="94.4" y1="125.6" x2="94.4" y2="138.6"/><line class="cls-8" x1="138.5" y1="72.5" x2="138.5" y2="85.5"/><line class="cls-8" x1="138.5" y1="98" x2="138.5" y2="111"/><line class="cls-8" x1="138.5" y1="125" x2="138.5" y2="138"/><path class="cls-8" d="M94.9,58.6c0-28.7,9-52,20-52"/><path class="cls-8" d="M136.8,58.4c0-28.6-9.8-51.8-21.9-51.8"/></g></g></svg>